<?xml version="1.0" encoding="UTF-8"?><svg id="Ebene_1" xmlns="http://www.w3.org/2000/svg" viewBox="0 0 700 700"><defs><style>.cls-1{fill:#dadada;}.cls-2{stroke-linecap:round;}.cls-2,.cls-3{fill:none;stroke:#1d1d1b;stroke-linejoin:round;stroke-width:2px;}</style></defs><path class="cls-1" d="M422.9,308.01v50.71c0,5.55-3.29,10.57-8.38,12.79l-45.53,19.81c-3.55,1.54-7.58,1.54-11.13,0l-45.53-19.81c-5.09-2.21-8.38-7.24-8.38-12.79v-50.66c0-5.45,3.17-10.4,8.12-12.67l45.86-21.07c3.72-1.71,8-1.7,11.7,.03l45.19,21.03c4.92,2.29,8.06,7.22,8.06,12.64Z"/><path class="cls-1" d="M364.62,394.11l-47.98-20.88c-5.01-2.18-8.25-7.12-8.25-12.59v-58.36c0-4.13,4.23-6.9,8.01-5.25l49.57,21.57c5.01,2.18,8.25,7.12,8.25,12.59v56.63c0,4.94-5.07,8.26-9.6,6.29Z"/><path class="cls-1" d="M214.52,329.8l-47.98-20.88c-5.01-2.18-8.25-7.12-8.25-12.59v-58.36c0-4.13,4.23-6.9,8.01-5.25l49.57,21.57c5.01,2.18,8.25,7.12,8.25,12.59v56.63c0,4.94-5.07,8.26-9.6,6.29Z"/><path class="cls-1" d="M360.19,256.62l-47.98-20.88c-5.01-2.18-8.25-7.12-8.25-12.59v-58.36c0-4.13,4.23-6.9,8.01-5.25l49.57,21.57c5.01,2.18,8.25,7.12,8.25,12.59v56.63c0,4.94-5.07,8.26-9.6,6.29Z"/><path class="cls-1" d="M361.99,533.83l-47.98-20.88c-5.01-2.18-8.25-7.12-8.25-12.59v-58.36c0-4.13,4.23-6.9,8.01-5.25l49.57,21.57c5.01,2.18,8.25,7.12,8.25,12.59v56.63c0,4.94-5.07,8.26-9.6,6.29Z"/><path class="cls-1" d="M502.82,466.74l-47.98-20.88c-5.01-2.18-8.25-7.12-8.25-12.59v-58.36c0-4.13,4.23-6.9,8.01-5.25l49.57,21.57c5.01,2.18,8.25,7.12,8.25,12.59v56.63c0,4.94-5.07,8.26-9.6,6.29Z"/><path class="cls-1" d="M211.19,464.15l-47.98-20.88c-5.01-2.18-8.25-7.12-8.25-12.59v-58.36c0-4.13,4.23-6.9,8.01-5.25l49.57,21.57c5.01,2.18,8.25,7.12,8.25,12.59v56.63c0,4.94-5.07,8.26-9.6,6.29Z"/><polygon class="cls-3" points="359.87 190.13 312.54 169.54 360.16 147.66 407.19 169.54 359.87 190.13"/><polyline class="cls-3" points="407.19 169.54 407.19 224.23 359.87 244.83 312.54 224.23 312.54 222.3 312.54 169.54"/><line class="cls-3" x1="359.87" y1="190.13" x2="359.87" y2="244.83"/><path class="cls-1" d="M504.38,328.87l-47.98-20.88c-5.01-2.18-8.25-7.12-8.25-12.59v-58.36c0-4.13,4.23-6.9,8.01-5.25l49.57,21.57c5.01,2.18,8.25,7.12,8.25,12.59v56.63c0,4.94-5.07,8.26-9.6,6.29Z"/><g><polygon class="cls-3" points="505.3 263.49 457.98 242.9 505.6 221.02 552.62 242.9 505.3 263.49"/><polyline class="cls-3" points="552.62 242.9 552.62 297.59 505.3 318.19 457.98 297.59 457.98 295.66 457.98 242.9"/><line class="cls-3" x1="505.3" y1="263.49" x2="505.3" y2="318.19"/></g><g><polygon class="cls-3" points="212.55 399.91 165.23 379.32 212.85 357.44 259.88 379.32 212.55 399.91"/><polyline class="cls-3" points="259.88 379.32 259.88 434.02 212.55 454.61 165.23 434.02 165.23 432.09 165.23 379.32"/><line class="cls-3" x1="212.55" y1="399.91" x2="212.55" y2="454.61"/></g><g><polygon class="cls-3" points="504.71 401.2 457.38 380.61 505 358.73 552.03 380.61 504.71 401.2"/><polyline class="cls-3" points="552.03 380.61 552.03 435.3 504.71 455.9 457.38 435.3 457.38 433.37 457.38 380.61"/><line class="cls-3" x1="504.71" y1="401.2" x2="504.71" y2="455.9"/></g><g><polygon class="cls-3" points="212.55 262.84 165.23 242.25 212.85 220.37 259.88 242.25 212.55 262.84"/><polyline class="cls-3" points="259.88 242.25 259.88 296.95 212.55 317.54 165.23 296.95 165.23 295.02 165.23 242.25"/><line class="cls-3" x1="212.55" y1="262.84" x2="212.55" y2="317.54"/></g><polygon class="cls-3" points="359.87 328.16 312.54 307.57 360.16 285.69 407.19 307.57 359.87 328.16"/><line class="cls-2" x1="259.15" y1="379.87" x2="336.72" y2="344.23"/><polyline class="cls-3" points="407.19 307.57 407.19 362.27 359.87 382.86 312.54 362.27 312.54 360.34 312.54 307.57"/><line class="cls-3" x1="359.87" y1="328.16" x2="359.87" y2="382.86"/><g><polygon class="cls-3" points="359.87 470.05 312.54 449.46 360.16 427.58 407.19 449.46 359.87 470.05"/><polyline class="cls-3" points="407.19 449.46 407.19 504.16 359.87 524.75 312.54 504.16 312.54 502.23 312.54 449.46"/><line class="cls-3" x1="359.87" y1="470.05" x2="359.87" y2="524.75"/></g><line class="cls-2" x1="312.27" y1="314.54" x2="238.31" y2="282.08"/><line class="cls-2" x1="407.94" y1="315.81" x2="485.09" y2="280.36"/><line class="cls-2" x1="469.44" y1="379.63" x2="386" y2="343"/><line class="cls-3" x1="359.57" y1="305.96" x2="359.57" y2="244.5"/><line class="cls-3" x1="359.57" y1="448.82" x2="359.57" y2="380.93"/></svg>