<?xml version="1.0" encoding="UTF-8"?><svg id="Ebene_1" xmlns="http://www.w3.org/2000/svg" viewBox="0 0 700 700"><defs><style>.cls-1{fill:#dadada;}.cls-2,.cls-3{fill:#1d1d1b;}.cls-3,.cls-4{stroke:#1d1d1b;stroke-miterlimit:10;stroke-width:2px;}.cls-4{fill:none;}</style></defs><ellipse class="cls-1" cx="335.18" cy="460.07" rx="229.93" ry="58.11"/><g><path class="cls-4" d="M366.5,327.3c-51.18-20.25-87.41-49.94-80.93-66.32"/><path class="cls-4" d="M349.96,369.08c-87.12-34.47-148.79-85.01-137.77-112.88,3.35-8.46,12.73-13.15,27-15.6"/><path class="cls-4" d="M339.39,395.81c-98.02-38.78-167.43-95.65-155.02-127.02"/><path class="cls-4" d="M326.56,429.09c-39.83-15.76-72.69-35.92-90.8-54.13"/><path class="cls-4" d="M285.56,260.98c39.59-57.6,108.8-42.32,108.8-42.32"/><path class="cls-4" d="M305.54,480.52c-1.16-.46-1.67-1.41-1.86-2.08-9.25-31.96-7.61-48.7-74.67-110.17-67.06-61.47-44.63-99.47-44.63-99.47,0,0,13.94-40.34,116.8-25.17"/><path class="cls-3" d="M403.42,234.83c-7.38-2.92-12.61-7.2-11.67-9.56l15.94-40.3,14.71-37.18s3.7-2.57,14.16,1.57"/><path class="cls-2" d="M291.23,438.57s7.7,11.11,23.97,17.55l-9.65,24.4-14.31-41.95Z"/><path class="cls-4" d="M365.79,327.02c51.18,20.25,97.92,23.39,104.4,7.01"/><path class="cls-4" d="M349.26,368.8c87.12,34.47,166.68,39.81,177.71,11.93,3.35-8.46-.29-18.3-9.02-29.85"/><path class="cls-4" d="M338.69,395.53c98.02,38.78,187.55,44.8,199.96,13.43"/><path class="cls-4" d="M325.27,428.58c39.83,15.76,77.59,23.53,103.25,22.65"/><path class="cls-4" d="M470.19,334.03c10.54-69.1-50.39-105.3-50.39-105.3"/><path class="cls-4" d="M305.42,480.47c1.16,.46,2.18,.11,2.78-.24,28.62-16.98,38.87-30.31,129.84-29.26,90.97,1.05,100.61-42.01,100.61-42.01,0,0,17.43-38.96-67.95-98.27"/><path class="cls-3" d="M402.13,234.32c7.38,2.92,14.12,3.37,15.05,1.01l15.94-40.3,14.71-37.18s-.94-4.41-11.4-8.54"/><path class="cls-2" d="M344.55,459.67s-13.22,2.83-29.48-3.6l-9.65,24.4,39.14-20.8Z"/><path class="cls-4" d="M106.08,224.98c5.46-13.81,20.77-21.45,44.05-25.45"/><path class="cls-4" d="M105.21,245.76c-.84-3.45-1.25-6.79-1.21-10"/><path class="cls-4" d="M583.85,477.42c1.78-.9,3.44-1.86,5-2.88,1.82-1.2,3.49-2.48,5-3.85"/><path class="cls-4" d="M503.87,486.57c9.72,.74,18.91,1.04,27.49,.89,9.54-.16,18.33-.88,26.24-2.16,1.71-.28,3.37-.58,5-.91,3.07-.62,5.99-1.33,8.75-2.14"/></g></svg>