<?xml version="1.0" encoding="UTF-8"?><svg id="Ebene_1" xmlns="http://www.w3.org/2000/svg" viewBox="0 0 700 700"><defs><style>.cls-1{fill:#dadada;}.cls-2{fill:#1d1d1b;}.cls-2,.cls-3{stroke:#1d1d1b;stroke-miterlimit:10;stroke-width:2px;}.cls-3{fill:none;}</style></defs><path class="cls-1" d="M374.3,422.46l-.49,70.98c-.1,14.33-14.88,23.85-27.99,18.03l-60.38-26.8c-12.62-5.6-23.98-20.85-28.84-38.62-.17-.64-.38-1.27-.61-1.89l-7.93-20.6c-.22-.58-.41-1.18-.59-1.79-2.49-8.7-8.09-16.13-14.3-18.88l-3.43-1.52-3.43-1.52c-6.16-2.73-11.71-.34-14.24,6.02-.32,.81-.73,1.57-1.17,2.32l-6.69,11.45c-.59,1-1.12,2.04-1.54,3.13-4.97,13.04-16.19,17.99-28.64,12.46l-76.43-33.92c-7.15-3.17-11.77-10.22-11.82-18.03l-.49-71.41c-.1-14.44,14.78-24.17,27.99-18.3l249.18,110.58c7.23,3.21,11.88,10.4,11.82,18.3Z"/><path class="cls-3" d="M396.04,393.85l-.74,108.67-83.66-37.18c-12.19-5.42-23.14-20.34-27.61-37.61l-8.18-21.3c-2.23-8.64-7.71-16.1-13.81-18.81l-3.25-1.45-3.25-1.45c-6.1-2.71-11.57-.12-13.81,6.53l-8.18,14.03c-4.47,13.3-15.42,18.49-27.61,13.07l-83.66-37.18-.74-109.33,274.52,122Z"/><path class="cls-3" d="M121.3,379.85l38.43-19.83c7.36-3.8,13.36-9.78,17.17-17.13l31.65-61.04c2.95-5.69,4.49-12,4.49-18.41v-33.25l-91,41"/><path class="cls-2" d="M213.04,230.18l95.39-41.98c4.87-2.14,10.4-2.26,15.36-.31l40.39,15.84c1.73,.68,2.87,2.35,2.87,4.2h0c0,2.98-2.84,5.14-5.71,4.35l-37.61-10.32c-4.93-1.35-10.2-.77-14.71,1.64l-95.97,51.25v-24.67Z"/><path class="cls-3" d="M394.3,503.85l38.43-19.83c7.36-3.8,13.36-9.78,17.17-17.13l31.65-61.04c2.95-5.69,4.49-12,4.49-18.41v-33.25l-91,41"/><path class="cls-2" d="M486.04,354.18l95.39-41.98c4.87-2.14,10.4-2.26,15.36-.31l40.39,15.84c1.73,.68,2.87,2.35,2.87,4.2h0c0,2.98-2.84,5.14-5.71,4.35l-37.61-10.32c-4.93-1.35-10.2-.77-14.71,1.64l-95.97,51.25v-24.67Z"/><line class="cls-3" x1="353.04" y1="425.85" x2="321.3" y2="446.85"/><line class="cls-3" x1="372.04" y1="413.85" x2="365.3" y2="417.85"/><line class="cls-3" x1="370.04" y1="437.85" x2="340.3" y2="457.85"/></svg>