<svg width="10" height="10" viewBox="0 0 10 10" fill="none" xmlns="http://www.w3.org/2000/svg">
<path d="M6.66666 3.33331C7.32971 3.33331 7.96559 3.59671 8.43443 4.06555C8.90327 4.53439 9.16666 5.17027 9.16666 5.83331V8.74998H7.5V5.83331C7.5 5.6123 7.4122 5.40034 7.25592 5.24406C7.09964 5.08778 6.88768 4.99998 6.66666 4.99998C6.44565 4.99998 6.23369 5.08778 6.07741 5.24406C5.92113 5.40034 5.83333 5.6123 5.83333 5.83331V8.74998H4.16666V5.83331C4.16666 5.17027 4.43006 4.53439 4.8989 4.06555C5.36774 3.59671 6.00362 3.33331 6.66666 3.33331V3.33331Z" stroke="black" stroke-width="0.5" stroke-linecap="round" stroke-linejoin="round"/>
<path d="M2.5 3.75H0.833336V8.75H2.5V3.75Z" stroke="black" stroke-width="0.5" stroke-linecap="round" stroke-linejoin="round"/>
<path d="M1.66667 2.49998C2.12691 2.49998 2.5 2.12688 2.5 1.66665C2.5 1.20641 2.12691 0.833313 1.66667 0.833313C1.20643 0.833313 0.833336 1.20641 0.833336 1.66665C0.833336 2.12688 1.20643 2.49998 1.66667 2.49998Z" stroke="black" stroke-width="0.5" stroke-linecap="round" stroke-linejoin="round"/>
</svg>
