<svg width="10" height="12" viewBox="0 0 10 12" fill="none" xmlns="http://www.w3.org/2000/svg">
<path d="M8.3834 3.48979C8.23828 2.97785 8.0051 2.54693 7.67046 2.17242C7.34326 1.80607 6.96683 1.52824 6.51934 1.32306C6.00971 1.08992 5.41894 0.976576 4.85447 1.00404C4.64853 1.01388 4.44746 1.02517 4.25027 1.05497C3.69495 1.13775 3.20585 1.3107 2.75499 1.58355C2.17989 1.93189 1.7309 2.40584 1.42069 2.99227C1.25933 3.29727 1.10058 3.83549 1.03307 4.18694C0.953232 4.6013 1.02355 5.31997 1.18379 5.72527C1.38395 6.23039 1.54866 6.4466 1.95027 6.7591C1.9527 6.76096 2.19129 6.93727 2.36122 6.93727H2.36662C2.6677 6.93727 2.72739 6.63797 2.7563 6.49336C2.7617 6.46609 2.76694 6.44297 2.77328 6.41764C2.77888 6.39521 2.78615 6.37318 2.79343 6.34826C2.83595 6.20463 2.89398 6.00896 2.79771 5.83464C2.76152 5.76929 2.71881 5.71896 2.68113 5.67425C2.66061 5.6499 2.64009 5.62667 2.6235 5.60078C2.48062 5.37923 2.40824 5.10212 2.40824 4.77696C2.40824 4.35034 2.50077 3.96397 2.69103 3.59577C3.03631 2.92793 3.60935 2.50639 4.34843 2.37648C4.76925 2.30287 5.25928 2.33365 5.62696 2.45674C5.96291 2.56922 6.24888 2.76817 6.45407 3.03237C6.6712 3.31196 6.79544 3.66663 6.82285 4.08663C6.84075 4.35472 6.81744 4.62468 6.79823 4.80405C6.72399 5.49429 6.53148 6.04996 6.22632 6.45584C5.97636 6.78889 5.70682 6.9559 5.40201 6.9666C5.20485 6.9744 5.05916 6.93272 4.92635 6.83348C4.80137 6.74037 4.72693 6.62557 4.69188 6.47258C4.65215 6.29787 4.70028 6.11664 4.7512 5.9248L4.75922 5.89431C4.8038 5.72556 4.85025 5.5714 4.89595 5.41968C4.96776 5.18062 5.04219 4.93335 5.10357 4.64657C5.17295 4.32288 5.1821 4.06151 5.13193 3.84786C5.06999 3.58249 4.93345 3.38373 4.72583 3.25694C4.50646 3.12352 4.1955 3.09782 3.93454 3.19149C3.54543 3.33026 3.24865 3.69924 3.12012 4.20366C3.05483 4.45987 3.036 4.72884 3.06415 5.00267C3.08579 5.2173 3.13168 5.41226 3.21674 5.64783C3.21395 5.65824 3.21058 5.66916 3.2074 5.67966C3.20162 5.70031 3.19603 5.72007 3.19173 5.738C3.10182 6.12957 3.01452 6.51598 2.92722 6.9017C2.84141 7.28139 2.7556 7.66049 2.66774 8.0435L2.64834 8.12794C2.5601 8.51085 2.46908 8.90669 2.44799 9.37949L2.43847 9.57357C2.41982 9.94216 2.40061 10.3232 2.44799 10.6766C2.45733 10.7451 2.47839 10.8981 2.62298 10.9518C2.66624 10.9857 2.70803 11 2.74851 11C2.86977 11 2.97776 10.8714 3.06954 10.7622C3.36912 10.4065 3.62411 9.95734 3.8487 9.38911C3.94925 9.13505 4.01584 8.86169 4.08019 8.59722L4.11899 8.43966C4.166 8.25132 4.21207 8.06046 4.25759 7.87163L4.26058 7.85917C4.34527 7.93649 4.44301 8.00631 4.55624 8.07096C4.79594 8.20954 5.06642 8.29026 5.35985 8.31081C5.63517 8.33028 5.92451 8.29348 6.24403 8.19774C6.48671 8.12548 6.71914 8.01573 6.93496 7.87141C7.70928 7.35373 8.23717 6.44808 8.42128 5.32148C8.4765 4.98474 8.5 4.71411 8.5 4.41651C8.5 4.07329 8.46083 3.76137 8.3834 3.48979ZM8.04483 5.25433C7.87881 6.26904 7.41154 7.07916 6.729 7.53549C6.54451 7.65887 6.34604 7.75256 6.13879 7.8143C5.86253 7.89717 5.61536 7.9294 5.38574 7.91295C5.14493 7.89602 4.93413 7.8336 4.74033 7.72151C4.5467 7.61098 4.42078 7.49071 4.33256 7.33158L4.09828 6.90953L3.88712 7.77428C3.8418 7.96204 3.7961 8.15173 3.74928 8.33909L3.7101 8.49899C3.64613 8.76134 3.58587 9.00917 3.49558 9.23685C3.2943 9.74595 3.06989 10.1485 2.80987 10.4659C2.78973 10.1948 2.80503 9.89046 2.81995 9.59472L2.82964 9.3982C2.84886 8.9631 2.93579 8.58595 3.01972 8.22124L3.03931 8.13631C3.12717 7.75301 3.21298 7.37352 3.29897 6.99336C3.38628 6.60812 3.47358 6.22211 3.56292 5.83209L3.57338 5.79439C3.59652 5.71357 3.62057 5.63011 3.58831 5.54539C3.50641 5.32619 3.46314 5.15138 3.44393 4.96062C3.42098 4.73528 3.43609 4.51501 3.48944 4.30612C3.58458 3.93266 3.79181 3.66389 4.05819 3.56885C4.12423 3.54518 4.19363 3.53506 4.25985 3.53506C4.36842 3.53506 4.46877 3.56213 4.53332 3.60147C4.64934 3.67237 4.72377 3.78387 4.76072 3.9426C4.79617 4.09335 4.78608 4.30097 4.73086 4.55962C4.67285 4.82985 4.6042 5.05831 4.53145 5.30021C4.48444 5.45613 4.43687 5.61457 4.39098 5.78808L4.38296 5.81826C4.3242 6.03951 4.25761 6.29037 4.32027 6.56508C4.37716 6.81389 4.50289 7.00777 4.70417 7.15803C4.90451 7.30741 5.13898 7.37471 5.41488 7.36526C5.83348 7.35055 6.20748 7.12735 6.52684 6.70209C6.87659 6.23709 7.09559 5.61357 7.17805 4.84833C7.19876 4.65327 7.22412 4.35929 7.20416 4.05915C7.17096 3.55569 7.01856 3.12575 6.75089 2.78112C6.49887 2.45664 6.15059 2.21309 5.74358 2.07695C5.32126 1.93545 4.76238 1.89933 4.28522 1.98308C3.42565 2.13422 2.75822 2.62629 2.35493 3.40631C2.13369 3.83421 2.02626 4.28255 2.02626 4.77706C2.02626 5.18304 2.12046 5.53507 2.30642 5.82353C2.33198 5.86336 2.36258 5.90056 2.39429 5.93806C2.42283 5.97195 2.44968 6.00388 2.4661 6.03359C2.47766 6.06611 2.44446 6.17859 2.42843 6.23263C2.41947 6.2631 2.4109 6.29242 2.404 6.31978C2.39597 6.35162 2.38907 6.38553 2.38217 6.41988C2.3747 6.45758 2.36314 6.5156 2.35121 6.54746C2.30569 6.52896 2.22325 6.48164 2.17847 6.44687C1.83524 6.17986 1.70933 6.00826 1.53697 5.57296C1.40769 5.24576 1.34352 4.59817 1.40769 4.26552C1.47932 3.89264 1.6319 3.41811 1.75503 3.18506C2.03148 2.66291 2.43236 2.24008 2.94682 1.92855C3.35442 1.68189 3.79836 1.52529 4.30482 1.44972C4.48502 1.42246 4.67603 1.41185 4.87226 1.4025C5.37854 1.37785 5.90922 1.47923 6.36587 1.68832C6.76469 1.87121 7.10008 2.11846 7.39108 2.44449C7.68451 2.77276 7.88914 3.15168 8.01709 3.60323C8.08406 3.83811 8.11801 4.11177 8.11801 4.41657C8.11796 4.6904 8.09614 4.94097 8.04483 5.25433Z" fill="black" stroke="black" stroke-width="0.1"/>
</svg>
