<svg width="10" height="10" viewBox="0 0 10 10" fill="none" xmlns="http://www.w3.org/2000/svg">
<g clip-path="url(#clip0_101_99)">
<path d="M3.75 7.91668C1.66667 8.54168 1.66667 6.87502 0.833336 6.66668M6.66667 9.16668V7.55418C6.6823 7.3555 6.65546 7.15577 6.58793 6.96826C6.52039 6.78076 6.41372 6.60977 6.275 6.46668C7.58334 6.32085 8.95834 5.82502 8.95834 3.55002C8.95823 2.96828 8.73446 2.40885 8.33334 1.98751C8.52328 1.47856 8.50985 0.915994 8.29584 0.416681C8.29584 0.416681 7.80417 0.270848 6.66667 1.03335C5.71167 0.774524 4.705 0.774524 3.75 1.03335C2.6125 0.270848 2.12084 0.416681 2.12084 0.416681C1.90683 0.915994 1.8934 1.47856 2.08334 1.98751C1.67922 2.41197 1.45522 2.97646 1.45834 3.56251C1.45834 5.82085 2.83334 6.31668 4.14167 6.47918C4.00458 6.62084 3.89886 6.78977 3.83138 6.97498C3.7639 7.1602 3.73617 7.35754 3.75 7.55418V9.16668" stroke="black" stroke-width="0.5" stroke-linecap="round" stroke-linejoin="round"/>
</g>
<defs>
<clipPath id="clip0_101_99">
<rect width="10" height="10" fill="white"/>
</clipPath>
</defs>
</svg>
