<svg width="49" height="34" viewBox="0 0 49 34" fill="none" xmlns="http://www.w3.org/2000/svg">
<path d="M0.2 34V0.199998H3.84V30.88H13.356V34H0.2ZM48.7367 34H44.0567V28.28H48.7367V34Z" fill="black"/>
<path d="M0.2 34H-0.8V35H0.2V34ZM0.2 0.199998V-0.800002H-0.8V0.199998H0.2ZM3.84 0.199998H4.84V-0.800002H3.84V0.199998ZM3.84 30.88H2.84V31.88H3.84V30.88ZM13.356 30.88H14.356V29.88H13.356V30.88ZM13.356 34V35H14.356V34H13.356ZM1.2 34V0.199998H-0.8V34H1.2ZM0.2 1.2H3.84V-0.800002H0.2V1.2ZM2.84 0.199998V30.88H4.84V0.199998H2.84ZM3.84 31.88H13.356V29.88H3.84V31.88ZM12.356 30.88V34H14.356V30.88H12.356ZM13.356 33H0.2V35H13.356V33ZM23.2384 34V35H24.2384V34H23.2384ZM19.5984 34H18.5984V35H19.5984V34ZM19.5984 0.199998V-0.800002H18.5984V0.199998H19.5984ZM33.5864 2.124L32.9073 2.85815L32.9165 2.86639L33.5864 2.124ZM31.1424 21.52L30.8392 20.5671L29.7139 20.9251L30.2525 21.9761L31.1424 21.52ZM37.5384 34V35H39.1746L38.4284 33.5439L37.5384 34ZM33.5344 34L32.6431 34.4534L32.9212 35H33.5344V34ZM27.4504 22.04L28.3417 21.5866L28.0637 21.04H27.4504V22.04ZM23.2384 22.04V21.04H22.2384V22.04H23.2384ZM30.8824 4.412L30.2082 5.15048L30.2082 5.15049L30.8824 4.412ZM23.2384 3.32V2.32H22.2384V3.32H23.2384ZM23.2384 18.92H22.2384V19.92H23.2384V18.92ZM23.2384 33H19.5984V35H23.2384V33ZM20.5984 34V0.199998H18.5984V34H20.5984ZM19.5984 1.2H27.4504V-0.800002H19.5984V1.2ZM27.4504 1.2C30.0108 1.2 31.772 1.80781 32.9074 2.8581L34.2655 1.3899C32.6276 -0.125147 30.2981 -0.800002 27.4504 -0.800002V1.2ZM32.9165 2.86639C34.0868 3.92257 34.7184 5.41486 34.7184 7.48H36.7184C36.7184 4.96914 35.9287 2.89076 34.2564 1.3816L32.9165 2.86639ZM34.7184 7.48V14.76H36.7184V7.48H34.7184ZM34.7184 14.76C34.7184 16.3874 34.3678 17.6233 33.7463 18.5414C33.1309 19.4505 32.1898 20.1373 30.8392 20.5671L31.4456 22.4729C33.1457 21.932 34.4926 21.0068 35.4025 19.6626C36.3064 18.3273 36.7184 16.6686 36.7184 14.76H34.7184ZM30.2525 21.9761L36.6485 34.4561L38.4284 33.5439L32.0324 21.0639L30.2525 21.9761ZM37.5384 33H33.5344V35H37.5384V33ZM34.4257 33.5466L28.3417 21.5866L26.5591 22.4934L32.6431 34.4534L34.4257 33.5466ZM27.4504 21.04H23.2384V23.04H27.4504V21.04ZM22.2384 22.04V34H24.2384V22.04H22.2384ZM33.0784 14.76V7.48H31.0784V14.76H33.0784ZM33.0784 7.48C33.0784 5.94849 32.6062 4.63178 31.5567 3.67351L30.2082 5.15049C30.7533 5.64822 31.0784 6.37684 31.0784 7.48H33.0784ZM31.5567 3.67351C30.515 2.72236 29.095 2.32 27.4504 2.32V4.32C28.7872 4.32 29.6552 4.64564 30.2082 5.15048L31.5567 3.67351ZM27.4504 2.32H23.2384V4.32H27.4504V2.32ZM22.2384 3.32V18.92H24.2384V3.32H22.2384ZM23.2384 19.92H27.4504V17.92H23.2384V19.92ZM27.4504 19.92C29.1225 19.92 30.5633 19.5466 31.5899 18.6237C32.6369 17.6826 33.0784 16.33 33.0784 14.76H31.0784C31.0784 15.9633 30.7487 16.6907 30.2529 17.1363C29.7369 17.6001 28.8637 17.92 27.4504 17.92V19.92ZM48.7367 34V35H49.7367V34H48.7367ZM44.0567 34H43.0567V35H44.0567V34ZM44.0567 28.28V27.28H43.0567V28.28H44.0567ZM48.7367 28.28H49.7367V27.28H48.7367V28.28ZM48.7367 33H44.0567V35H48.7367V33ZM45.0567 34V28.28H43.0567V34H45.0567ZM44.0567 29.28H48.7367V27.28H44.0567V29.28ZM47.7367 28.28V34H49.7367V28.28H47.7367Z" fill="black"/>
</svg>
