<?xml version="1.0" encoding="UTF-8"?><svg id="Ebene_1" xmlns="http://www.w3.org/2000/svg" viewBox="0 0 51 36"><defs><style>.cls-1{stroke:#000;stroke-miterlimit:10;}</style></defs><path class="cls-1" d="M1.62,34.87V1.07h3.64V31.75H14.78v3.12H1.62Z"/><path d="M28.87,1.07c2.7,0,4.76,.64,6.16,1.92s2.11,3.07,2.11,5.36v7.28c0,3.54-1.53,5.79-4.58,6.76l6.4,12.48h-4l-6.08-11.96h-4.21v11.96h-3.64V1.07h7.85m-4.21,18.72h4.21c3.08,0,4.63-1.39,4.63-4.16v-7.28c0-1.32-.4-2.34-1.2-3.07-.8-.73-1.94-1.09-3.43-1.09h-4.21v15.6M28.87,.57h-8.35V35.37h4.64v-11.96h3.41l5.94,11.69,.14,.27h5.13l-.37-.73-6.13-11.97c2.9-1.13,4.37-3.5,4.37-7.04v-7.28c0-2.42-.76-4.35-2.27-5.72-1.49-1.36-3.68-2.05-6.5-2.05h0Zm-3.71,4.12h3.71c1.35,0,2.4,.32,3.1,.96,.69,.63,1.03,1.52,1.03,2.7v7.28c0,2.5-1.31,3.66-4.13,3.66h-3.71V4.69h0Z"/><path class="cls-1" d="M50.14,34.87h-4.68v-5.72h4.68v5.72Z"/></svg>