<?xml version="1.0" encoding="UTF-8"?><svg id="Ebene_1" xmlns="http://www.w3.org/2000/svg" viewBox="0 0 380 36"><defs><style>.cls-1{stroke:#000;stroke-miterlimit:10;}</style></defs><path class="cls-1" d="M1.62,34.87V1.07h3.64V31.75H14.78v3.12H1.62Z"/><path class="cls-1" d="M37.14,34.87h-1.56l-1.35-3.33c-.73,1.25-1.68,2.25-2.86,2.99s-2.48,1.12-3.9,1.12c-4.99,0-7.49-2.43-7.49-7.28v-5.2c0-4.85,2.5-7.28,7.49-7.28h6.03V7.36c0-1.25-.4-2.22-1.2-2.91-.8-.69-1.98-1.04-3.54-1.04-3.09,0-4.63,1.32-4.63,3.95v3.07h-3.64v-2.86c0-2.32,.68-4.12,2.05-5.38,1.37-1.26,3.44-1.9,6.21-1.9s4.86,.63,6.27,1.9c1.4,1.27,2.11,3.06,2.11,5.38v27.3Zm-3.64-15.86h-6.03c-1.46,0-2.46,.36-3.02,1.09-.55,.73-.83,1.75-.83,3.07v5.2c0,1.32,.28,2.34,.83,3.07,.55,.73,1.56,1.09,3.02,1.09s2.81-.56,4.06-1.69c1.25-1.13,1.91-2.24,1.98-3.35v-8.48Z"/><path class="cls-1" d="M50.66,34.87h-3.64V1.07h1.56l1.51,3.85c1.11-3.08,2.88-4.63,5.3-4.63,4.12,0,6.19,2.25,6.19,6.76v3.38h-3.48v-3.59c0-2.29-.95-3.43-2.86-3.43-1.14,0-2.19,.66-3.15,1.98-.95,1.32-1.43,3.22-1.43,5.72v23.76Z"/><path class="cls-1" d="M83.94,34.87h-1.56l-1.35-3.33c-.73,1.25-1.68,2.25-2.86,2.99s-2.48,1.12-3.9,1.12c-4.99,0-7.49-2.43-7.49-7.28v-5.2c0-4.85,2.5-7.28,7.49-7.28h6.03V7.36c0-1.25-.4-2.22-1.2-2.91-.8-.69-1.98-1.04-3.54-1.04-3.09,0-4.63,1.32-4.63,3.95v3.07h-3.64v-2.86c0-2.32,.68-4.12,2.05-5.38,1.37-1.26,3.44-1.9,6.21-1.9s4.86,.63,6.27,1.9c1.4,1.27,2.11,3.06,2.11,5.38v27.3Zm-3.64-15.86h-6.03c-1.46,0-2.46,.36-3.02,1.09-.55,.73-.83,1.75-.83,3.07v5.2c0,1.32,.28,2.34,.83,3.07,.55,.73,1.56,1.09,3.02,1.09s2.81-.56,4.06-1.69c1.25-1.13,1.91-2.24,1.98-3.35v-8.48Z"/><path d="M113.63,1.07c2.7,0,4.76,.64,6.16,1.92s2.11,3.07,2.11,5.36v7.28c0,3.54-1.53,5.79-4.58,6.76l6.4,12.48h-4l-6.08-11.96h-4.21v11.96h-3.64V1.07h7.85m-4.21,18.72h4.21c3.08,0,4.63-1.39,4.63-4.16v-7.28c0-1.32-.4-2.34-1.2-3.07-.8-.73-1.94-1.09-3.43-1.09h-4.21v15.6M113.63,.57h-7.85l-.5,.5V34.87l.5,.5h3.64l.5-.5v-11.46h3.41l5.94,11.69,.45,.27h4l.45-.73-6.13-11.97c2.9-1.13,4.37-3.5,4.37-7.04v-7.28c0-2.42-.76-4.35-2.27-5.72-1.49-1.36-3.68-2.05-6.5-2.05h0Zm-3.71,4.12h3.71c1.35,0,2.4,.32,3.1,.96,.69,.63,1.03,1.52,1.03,2.7v7.28c0,2.5-1.31,3.66-4.13,3.66h-3.71V4.69h0Z"/><path d="M139.03,.29c2.93,0,5.14,.63,6.63,1.9,1.49,1.27,2.24,3.06,2.24,5.38V28.37c0,2.32-.74,4.12-2.21,5.38-1.47,1.26-3.67,1.9-6.6,1.9s-5.14-.63-6.63-1.9c-1.49-1.27-2.24-3.06-2.24-5.38V7.57c0-2.32,.74-4.12,2.21-5.38,1.47-1.26,3.67-1.9,6.6-1.9m.03,32.24c3.47,0,5.2-1.39,5.2-4.16V7.57c0-2.77-1.73-4.16-5.2-4.16s-5.2,1.39-5.2,4.16V28.37c0,2.77,1.73,4.16,5.2,4.16m-.03-32.74c-3.04,0-5.37,.68-6.93,2.02-1.58,1.36-2.38,3.3-2.38,5.76V28.37c0,2.47,.81,4.4,2.41,5.76,1.58,1.34,3.92,2.02,6.95,2.02s5.37-.68,6.93-2.02c1.58-1.36,2.38-3.3,2.38-5.76V7.57c0-2.46-.81-4.4-2.41-5.76-1.58-1.34-3.92-2.02-6.95-2.02h0Zm.03,32.24c-4.21,0-4.7-2.09-4.7-3.66V7.57c0-1.57,.49-3.66,4.7-3.66s4.7,2.09,4.7,3.66V28.37c0,1.57-.49,3.66-4.7,3.66h0Z"/><path d="M165.27,.29c2.84,0,4.99,.63,6.45,1.9,1.46,1.27,2.18,3.06,2.18,5.38v4.94h-3.64V7.57c0-2.77-1.65-4.16-4.94-4.16s-4.94,1.39-4.94,4.16V28.37c0,2.77,1.65,4.16,4.94,4.16s4.94-1.39,4.94-4.16v-2.86h3.64v2.86c0,2.32-.71,4.12-2.13,5.38-1.42,1.26-3.55,1.9-6.4,1.9s-4.99-.63-6.45-1.9c-1.46-1.27-2.18-3.06-2.18-5.38V7.57c0-2.32,.71-4.12,2.13-5.38,1.42-1.26,3.55-1.9,6.4-1.9m0-.5c-2.96,0-5.22,.68-6.73,2.02-1.53,1.36-2.3,3.3-2.3,5.76V28.37c0,2.46,.79,4.4,2.36,5.76,1.54,1.34,3.82,2.02,6.78,2.02s5.22-.68,6.73-2.02c1.53-1.36,2.3-3.3,2.3-5.76v-2.86l-.5-.5h-3.64l-.5,.5v2.86c0,2.5-1.41,3.66-4.44,3.66s-4.44-1.16-4.44-3.66V7.57c0-2.5,1.41-3.66,4.44-3.66s4.44,1.16,4.44,3.66v4.94l.5,.5h3.64l.5-.5V7.57c0-2.46-.79-4.4-2.36-5.76-1.54-1.34-3.82-2.02-6.78-2.02h0Z"/><path d="M199.79,1.07l-9.2,14.56,9.83,19.24h-4l-8.01-15.76-1.72,2.76v13h-3.64V1.07h3.64V15.42l9.05-14.35h4.06m0-.5h-4.06l-.42,.23-8.13,12.89V1.07l-.5-.5h-3.64l-.5,.5V34.87l.5,.5h3.64l.5-.5v-12.86l1.17-1.88,7.61,14.97,.45,.27h4l.45-.73-9.7-18.99,9.05-14.32-.42-.77h0Z"/><path class="cls-1" d="M219.4,28.37v-2.86h3.64v2.86c0,2.32-.71,4.12-2.13,5.38-1.42,1.26-3.55,1.9-6.4,1.9s-4.99-.63-6.45-1.9c-1.46-1.27-2.18-3.06-2.18-5.38V7.57c0-2.32,.71-4.12,2.13-5.38,1.42-1.26,3.55-1.9,6.4-1.9s4.99,.63,6.45,1.9c1.46,1.27,2.18,3.06,2.18,5.38v11.44h-13.52v9.36c0,2.77,1.65,4.16,4.94,4.16s4.94-1.39,4.94-4.16Zm-9.88-20.8V15.89h9.88V7.57c0-2.77-1.65-4.16-4.94-4.16s-4.94,1.39-4.94,4.16Z"/><path class="cls-1" d="M236.3,34.87h-3.64V1.07h1.56l1.3,3.38c1.66-2.77,3.97-4.16,6.92-4.16,5.1,0,7.64,2.43,7.64,7.28v27.3h-3.64V7.57c0-1.32-.29-2.34-.86-3.07-.57-.73-1.62-1.09-3.15-1.09s-2.93,.59-4.21,1.77c-1.28,1.18-1.92,2.32-1.92,3.43v26.26Z"/><path class="cls-1" d="M276.49,28.37c0,4.85-2.93,7.28-8.79,7.28s-8.79-2.43-8.79-7.28v-4.42h3.64v4.63c0,1.25,.43,2.22,1.3,2.91s2.15,1.04,3.85,1.04,2.98-.35,3.85-1.04c.87-.69,1.3-1.64,1.3-2.83s-.13-2.15-.39-2.86c-.26-.71-.79-1.46-1.59-2.26l-9.15-8.94c-1.08-1.07-1.81-2.12-2.21-3.15s-.6-2.31-.6-3.87c0-2.32,.72-4.12,2.16-5.38,1.44-1.26,3.61-1.9,6.53-1.9,5.58,0,8.37,2.43,8.37,7.28v4.42h-3.64V7.36c0-1.25-.41-2.22-1.22-2.91s-2.04-1.04-3.67-1.04-2.85,.35-3.67,1.04c-.82,.69-1.22,1.65-1.22,2.86s.12,2.17,.36,2.86c.24,.69,.78,1.42,1.61,2.18l9.31,8.94c1,1.11,1.7,2.18,2.08,3.2,.38,1.02,.57,2.31,.57,3.87Z"/><path class="cls-1" d="M285.07,1.07h11.44v3.12h-7.8V29.1c0,.97,.25,1.79,.75,2.44,.5,.66,1.21,.99,2.13,.99s1.62-.32,2.11-.96,.73-1.46,.73-2.47v-6.19h3.64v5.98c0,2.18-.58,3.86-1.74,5.02s-2.73,1.74-4.71,1.74-3.56-.58-4.76-1.74-1.79-2.83-1.79-5.02V1.07Z"/><path class="cls-1" d="M318.09,28.37v-2.86h3.64v2.86c0,2.32-.71,4.12-2.13,5.38-1.42,1.26-3.55,1.9-6.4,1.9s-4.99-.63-6.45-1.9c-1.46-1.27-2.18-3.06-2.18-5.38V7.57c0-2.32,.71-4.12,2.13-5.38,1.42-1.26,3.55-1.9,6.4-1.9s4.99,.63,6.45,1.9c1.46,1.27,2.18,3.06,2.18,5.38v11.44h-13.52v9.36c0,2.77,1.65,4.16,4.94,4.16s4.94-1.39,4.94-4.16Zm-9.88-20.8V15.89h9.88V7.57c0-2.77-1.65-4.16-4.94-4.16s-4.94,1.39-4.94,4.16Z"/><path class="cls-1" d="M334.99,34.87h-3.64V1.07h3.64V34.87Z"/><path class="cls-1" d="M349.03,34.87h-3.64V1.07h1.56l1.3,3.38c1.66-2.77,3.97-4.16,6.92-4.16,5.1,0,7.64,2.43,7.64,7.28v27.3h-3.64V7.57c0-1.32-.29-2.34-.86-3.07-.57-.73-1.62-1.09-3.15-1.09s-2.93,.59-4.21,1.77c-1.28,1.18-1.92,2.32-1.92,3.43v26.26Z"/><path d="M376.59,29.15v5.72h-4.68v-5.72h4.68m.5-.5h-5.68v6.72h5.68v-6.72h0Z"/></svg>